# Blender3D v245 OBJ File: skybox.blend
# www.blender3d.org
mtllib skybox.mtl
o Cube.006
v -1.000000 -1.000000 -1.000000
v -1.000000 -1.000000 1.000000
v 1.000000 -1.000000 1.000000
v 1.000000 -1.000000 -1.000000
vt 1.000000 1.000000 0.0
vt -0.000000 1.000000 0.0
vt -0.000000 0.000000 0.0
vt 1.000000 1.000000 0.0
vt -0.000000 0.000000 0.0
vt 1.000000 -0.000000 0.0
vn 0.000000 1.000000 -0.000000
usemtl Material_plainsky_bottom.jpg
s off
f 4/1/1 1/2/1 2/3/1
f 4/4/1 2/5/1 3/6/1
o Cube.005
v -1.000000 1.000000 1.000000
v 0.999999 1.000000 1.000001
v -1.000000 -1.000000 1.000000
v 1.000000 -1.000000 1.000000
vt 1.000000 1.000000 0.0
vt -0.000000 1.000000 0.0
vt 1.000000 0.000000 0.0
vt -0.000000 1.000000 0.0
vt 0.000000 -0.000000 0.0
vt 1.000000 0.000000 0.0
vn 0.000001 -0.000000 -1.000000
vn 0.000000 0.000000 -1.000000
usemtl Material_plainsky_left.jpg
s off
f 5/7/2 6/8/2 7/9/2
f 6/10/3 8/11/3 7/12/3
o Cube.004
v -1.000000 1.000000 -1.000000
v -1.000000 1.000000 1.000000
v -1.000000 -1.000000 -1.000000
v -1.000000 -1.000000 1.000000
vt 1.000000 1.000000 0.0
vt -0.000000 1.000000 0.0
vt 0.000000 -0.000000 0.0
vt 1.000000 1.000000 0.0
vt 0.000000 -0.000000 0.0
vt 1.000000 0.000000 0.0
vn 1.000000 0.000000 0.000000
usemtl Material_plainsky_back.jpg
s off
f 9/13/4 10/14/4 12/15/4
f 9/16/4 12/17/4 11/18/4
o Cube.003
v -1.000000 1.000000 -1.000000
v 1.000000 1.000000 -1.000000
v -1.000000 -1.000000 -1.000000
v 1.000000 -1.000000 -1.000000
vt 1.000000 1.000000 0.0
vt -0.000000 1.000000 0.0
vt 1.000000 0.000000 0.0
vt -0.000000 1.000000 0.0
vt 0.000000 -0.000000 0.0
vt 1.000000 0.000000 0.0
vn -0.000000 -0.000000 1.000000
usemtl Material_plainsky_right.jpg
s off
f 14/19/5 13/20/5 16/21/5
f 13/22/5 15/23/5 16/24/5
o Cube.002
v -1.000000 1.000000 -1.000000
v -1.000000 1.000000 1.000000
v 0.999999 1.000000 1.000001
v 1.000000 1.000000 -1.000000
vt 0.000000 1.000000 0.0
vt 0.000000 0.000000 0.0
vt 1.000000 0.000000 0.0
vt 0.000000 1.000000 0.0
vt 1.000000 0.000000 0.0
vt 1.000000 1.000000 0.0
vn -0.000000 -1.000000 0.000000
usemtl Material_plainsky_top.jpg
s off
f 18/25/6 17/26/6 20/27/6
f 18/28/6 20/29/6 19/30/6
o Cube.001
v 0.999999 1.000000 1.000001
v 1.000000 1.000000 -1.000000
v 1.000000 -1.000000 1.000000
v 1.000000 -1.000000 -1.000000
vt 1.000000 1.000000 0.0
vt -0.000000 1.000000 0.0
vt 1.000000 0.000000 0.0
vt -0.000000 1.000000 0.0
vt 0.000000 -0.000000 0.0
vt 1.000000 0.000000 0.0
vn -1.000000 -0.000000 -0.000001
vn -1.000000 0.000000 -0.000000
usemtl Material_plainsky_front.jpg
s off
f 21/31/7 22/32/7 23/33/7
f 22/34/8 24/35/8 23/36/8
