# Blender3D v243 OBJ File: star_obj.blend
# www.blender3d.org
mtllib star.mtl
o Plane
v -0.068355 -0.000000 -0.516362
v -0.022768 0.000000 0.010816
v -1.613783 -0.000000 -0.898206
v 0.313489 -0.000000 -2.637715
v 0.631692 -0.000000 -0.707283
v 2.180279 -0.000000 -0.898205
v 0.737759 0.000000 0.013977
v 1.331738 0.000000 1.668633
v -0.832042 0.000000 1.498924
v -0.141503 0.559734 0.413014
v 0.696921 0.559734 0.478773
v 0.466766 0.559734 -0.162375
v 1.025715 0.559734 -0.515828
v 0.425666 0.559734 -0.441850
v 0.302369 0.559734 -1.189856
v -0.444413 0.559734 -0.515829
v 0.172076 0.559734 -0.163600
v 0.154412 0.559734 -0.367871
vt 0.386307 0.370721 0.0
vt 0.288921 0.425344 0.0
vt 0.545972 0.643963 0.0
vt 0.288921 0.425344 0.0
vt 0.240710 0.355336 0.0
vt 0.155143 0.644858 0.0
vt 0.325221 0.270062 0.0
vt 0.386307 0.370721 0.0
vt 0.578341 0.221389 0.0
vt 0.325221 0.270062 0.0
vt 0.288921 0.425344 0.0
vt 0.386307 0.370721 0.0
vt 0.240710 0.355336 0.0
vt 0.288921 0.425344 0.0
vt 0.325221 0.270062 0.0
vt 0.325221 0.270062 0.0
vt 0.000000 0.262406 0.0
vt 0.240710 0.355336 0.0
vt 0.224196 0.000000 0.0
vt 0.000000 0.262406 0.0
vt 0.325221 0.270062 0.0
vt 0.895472 0.343803 0.0
vt 1.000000 0.314006 0.0
vt 0.882120 0.299774 0.0
vt 0.853404 0.305258 0.0
vt 0.882120 0.299774 0.0
vt 0.896687 0.198680 0.0
vt 0.895472 0.343803 0.0
vt 0.856364 0.354112 0.0
vt 0.912321 0.442322 0.0
vt 0.856364 0.354112 0.0
vt 0.895472 0.343803 0.0
vt 0.882120 0.299774 0.0
vt 0.853404 0.305258 0.0
vt 0.856364 0.354112 0.0
vt 0.882120 0.299774 0.0
vt 0.768481 0.260506 0.0
vt 0.856364 0.354112 0.0
vt 0.853404 0.305258 0.0
vt 0.768481 0.260506 0.0
vt 0.768093 0.400280 0.0
vt 0.856364 0.354112 0.0
vt 0.494078 0.644858 0.0
vt 0.409476 0.688260 0.0
vt 0.494091 0.745845 0.0
vt 0.409476 0.688260 0.0
vt 0.409509 0.948885 0.0
vt 0.494091 0.745845 0.0
vt 0.798510 0.275055 0.0
vt 0.853404 0.305258 0.0
vt 0.896687 0.198680 0.0
vt 0.798510 0.275055 0.0
vt 0.896687 0.198680 0.0
vt 0.910213 0.000000 0.0
vt 0.578346 0.983812 0.0
vt 0.669882 1.000000 0.0
vt 0.669880 0.862434 0.0
vt 0.578346 0.983812 0.0
vt 0.669880 0.862434 0.0
vt 0.578341 0.628785 0.0
vt 0.670440 0.990679 0.0
vt 0.762048 0.754382 0.0
vt 0.669882 0.666542 0.0
vt 0.762048 0.754382 0.0
vt 0.761832 0.628785 0.0
vt 0.669882 0.666542 0.0
vt 0.000000 0.900151 0.0
vt 0.090966 0.937210 0.0
vt 0.091156 0.838289 0.0
vt 0.000000 0.900151 0.0
vt 0.091156 0.838289 0.0
vt 0.000491 0.644858 0.0
vt 0.950560 0.628785 0.0
vt 0.912321 0.442322 0.0
vt 0.806150 0.401135 0.0
vt 0.912321 0.442322 0.0
vt 0.856364 0.354112 0.0
vt 0.806150 0.401135 0.0
vt 0.762048 0.919824 0.0
vt 0.851157 0.962985 0.0
vt 0.851295 0.850213 0.0
vt 0.762048 0.919824 0.0
vt 0.851295 0.850213 0.0
vt 0.762403 0.628785 0.0
vt 0.578341 0.520285 0.0
vt 0.768093 0.400280 0.0
vt 0.579343 0.159560 0.0
vt 0.768093 0.400280 0.0
vt 0.768481 0.260506 0.0
vt 0.579343 0.159560 0.0
vt 0.494148 0.965168 0.0
vt 0.578341 0.752359 0.0
vt 0.494091 0.687732 0.0
vt 0.578341 0.752359 0.0
vt 0.578319 0.644858 0.0
vt 0.494091 0.687732 0.0
vn 0.000000 -1.000000 0.000000
vn 0.000000 1.000000 0.000000
vn 0.236777 0.159992 -0.958300
vn -0.453530 0.405223 0.793791
vn -0.901273 0.401732 -0.162229
vn 0.903027 0.402970 -0.148851
vn -0.112588 0.391617 -0.913214
vn 0.473201 0.464867 0.748318
vn 0.473201 0.464866 0.748318
vn 0.888568 0.329701 -0.318973
vn -0.034545 0.897112 0.440450
vn -0.867873 0.155038 -0.471974
usemtl Material_tex.jpg
s 1
f 5/1/1 1/2/1 4/3/1
f 1/4/1 2/5/1 3/6/1
f 7/7/1 5/8/1 6/9/1
f 7/10/1 1/11/1 5/12/1
f 2/13/1 1/14/1 7/15/1
f 7/16/1 9/17/1 2/18/1
f 8/19/1 9/20/1 7/21/1
f 14/22/2 15/23/2 18/24/2
f 17/25/2 18/26/2 16/27/2
f 14/28/2 12/29/2 13/30/2
f 12/31/2 14/32/2 18/33/2
f 17/34/2 12/35/2 18/36/2
f 10/37/2 12/38/2 17/39/2
f 10/40/2 11/41/2 12/42/2
f 18/43/3 1/44/3 16/45/3
f 1/46/3 3/47/3 16/48/3
f 2/49/4 17/50/4 16/51/4
f 2/52/4 16/53/4 3/54/4
f 1/55/5 18/56/5 15/57/5
f 1/58/5 15/59/5 4/60/5
f 4/61/6 15/62/6 5/63/6
f 15/64/6 14/65/6 5/66/6
f 5/67/7 14/68/7 13/69/7
f 5/70/7 13/71/7 6/72/7
f 6/73/8 13/74/8 7/75/8
f 13/76/9 12/77/9 7/78/9
f 7/79/10 12/80/10 11/81/10
f 7/82/10 11/83/10 8/84/10
f 8/85/11 11/86/11 9/87/11
f 11/88/11 10/89/11 9/90/11
f 9/91/12 10/92/12 2/93/12
f 10/94/12 17/95/12 2/96/12
